<?xml version="1.0" standalone="no"?><!DOCTYPE svg PUBLIC "-//W3C//DTD SVG 1.1//EN" "http://www.w3.org/Graphics/SVG/1.1/DTD/svg11.dtd"><svg height="1200" node-id="1" sillyvg="true" template-height="1200" template-width="1200" version="1.1" viewBox="0 0 1200 1200" width="1200" xmlns="http://www.w3.org/2000/svg" xmlns:xlink="http://www.w3.org/1999/xlink"><defs node-id="84"><linearGradient gradientUnits="objectBoundingBox" id="SVGID_1_" node-id="22" spreadMethod="pad" x1="166.7553" x2="1064.8267" y1="891.4786" y2="891.4786"><stop offset="0" stop-color="#405ab1"></stop><stop offset="1" stop-color="#0b1066"></stop></linearGradient></defs><g node-id="262"><g node-id="263"><path d="M 708.80 299.50 L 698.50 303.60 L 687.80 307.50 L 676.60 311.00 L 665.00 314.20 L 649.40 318.00 L 633.40 321.20 L 616.90 323.80 L 600.30 325.90 L 583.60 327.50 L 566.70 328.60 L 549.70 329.20 L 533.00 329.30 L 516.30 328.90 L 499.70 328.00 L 483.60 326.70 L 467.90 325.00 L 452.30 322.70 L 437.50 320.20 L 423.50 317.20 L 409.60 313.80 L 396.80 310.00 L 374.80 302.50 L 364.50 299.40 L 354.20 297.00 L 344.10 295.00 L 334.00 293.50 L 323.70 292.50 L 313.60 292.00 L 303.60 291.90 L 293.80 292.30 L 284.00 293.20 L 274.20 294.50 L 264.60 296.20 L 255.20 298.30 L 246.00 300.90 L 237.00 303.80 L 228.00 307.20 L 219.30 310.90 L 210.80 315.00 L 202.60 319.40 L 194.60 324.20 L 186.80 329.40 L 179.40 334.90 L 172.20 340.70 L 165.30 346.80 L 158.70 353.30 L 152.40 360.00 L 146.50 367.00 L 141.00 374.30 L 135.80 381.90 L 131.00 389.70 L 126.60 397.80 L 122.60 406.00 L 119.00 414.60 L 115.90 423.30 L 113.20 432.40 L 110.90 441.40 L 109.20 450.70 L 108.00 460.30 L 107.20 470.00 L 107.00 480.00 L 107.30 489.90 L 108.20 500.00 L 109.60 510.30 L 111.60 520.80 L 114.20 531.60 L 117.30 542.00 L 121.10 552.60 L 125.60 563.40 L 130.70 574.50 L 143.20 598.00 L 148.80 609.40 L 157.60 629.50 L 161.30 639.60 L 164.40 649.00 L 166.80 657.70 L 168.60 665.70 L 170.00 674.10 L 170.90 681.90 L 171.40 689.20 L 171.40 696.00 L 170.40 709.60 L 168.10 721.80 L 165.80 729.60 L 163.20 737.10 L 160.20 744.30 L 155.20 754.90 L 135.00 792.80 L 128.50 807.40 L 125.70 815.10 L 123.30 823.10 L 121.20 831.70 L 120.10 838.10 L 118.80 852.20 L 118.70 859.90 L 119.00 867.40 L 119.70 875.40 L 121.00 884.10 L 122.70 893.40 L 124.80 902.40 L 127.60 912.00 L 131.00 922.50 L 135.10 933.80 L 137.90 940.00 L 141.20 946.00 L 145.10 951.80 L 149.60 957.30 L 154.70 962.70 L 160.50 968.00 L 167.00 973.00 L 174.30 977.90 L 182.50 982.60 L 191.60 987.10 L 201.70 991.40 L 212.80 995.40 L 224.10 998.90 L 236.40 1002.30 L 249.90 1005.30 L 264.50 1008.10 L 280.40 1010.70 L 297.60 1012.90 L 316.30 1014.80 L 336.50 1016.20 L 358.20 1017.30 L 381.60 1018.00 L 406.90 1018.10 L 434.00 1017.80 L 463.10 1017.00 L 494.10 1015.60 L 527.30 1013.60 L 562.80 1011.00 L 600.60 1007.70 L 669.70 1000.90 L 697.80 998.50 L 765.70 994.10 L 877.50 988.00 L 922.90 984.40 L 943.90 982.10 L 959.70 980.00 L 974.70 977.70 L 989.00 975.00 L 1002.60 972.10 L 1024.20 966.40 L 1034.20 963.10 L 1052.90 955.80 L 1062.00 951.60 L 1070.60 946.90 L 1078.70 942.00 L 1086.50 936.70 L 1093.80 931.00 L 1100.70 924.90 L 1107.30 918.30 L 1113.40 911.20 L 1119.10 903.60 L 1124.50 895.50 L 1128.50 888.60 L 1132.10 881.30 L 1135.60 873.50 L 1138.70 865.20 L 1141.60 856.30 L 1144.20 847.00 L 1146.60 836.10 L 1148.70 824.30 L 1150.30 811.60 L 1151.40 798.00 L 1152.00 783.30 L 1150.60 765.10 L 1148.90 749.30 L 1146.70 734.10 L 1144.40 720.40 L 1133.80 670.20 L 1129.00 644.90 L 1127.00 631.60 L 1124.40 607.00 L 1123.30 584.30 L 1123.10 572.50 L 1123.70 545.10 L 1125.50 514.80 L 1128.20 482.80 L 1128.80 468.20 L 1128.90 453.40 L 1128.40 438.70 L 1127.30 424.10 L 1125.60 409.60 L 1123.80 398.80 L 1121.70 388.20 L 1119.10 377.70 L 1116.10 367.50 L 1112.70 357.40 L 1108.80 347.50 L 1104.50 338.00 L 1099.70 328.80 L 1095.50 321.60 L 1090.90 314.60 L 1086.00 307.90 L 1080.80 301.50 L 1075.20 295.20 L 1069.40 289.30 L 1063.10 283.70 L 1056.50 278.40 L 1049.40 273.40 L 1041.90 268.60 L 1034.30 264.30 L 1026.20 260.40 L 1017.60 256.80 L 1008.40 253.50 L 998.70 250.60 L 989.20 248.20 L 979.00 246.30 L 968.30 244.70 L 956.90 243.60 L 944.70 242.90 L 933.10 242.80 L 920.70 243.10 L 907.60 244.00 L 893.80 245.40 L 879.10 247.40 L 865.10 249.70 L 850.30 252.70 L 834.70 256.30 L 818.20 260.60 L 800.70 265.60 L 784.20 270.80 L 766.80 276.80 L 748.40 283.50 L 729.10 291.10 L 708.80 299.50 Z" fill="#f3f6fa" fill-rule="nonzero" group-id="2,3" node-id="97" stroke="none" target-height="775.3" target-width="1045" target-x="107" target-y="242.8"></path><g node-id="264"><path d="M 302.10 458.70 L 140.40 458.70 L 135.80 458.30 L 131.50 457.50 L 127.40 456.00 L 123.50 454.10 L 120.00 451.70 L 116.80 448.90 L 114.00 445.70 L 111.60 442.10 L 109.60 438.20 L 108.20 434.20 L 107.30 429.80 L 107.00 425.20 L 107.00 263.60 L 107.30 259.00 L 108.20 254.70 L 109.60 250.60 L 111.60 246.70 L 114.00 243.20 L 116.80 240.00 L 120.00 237.20 L 123.50 234.80 L 127.40 232.80 L 131.50 231.40 L 135.80 230.50 L 140.40 230.20 L 302.10 230.20 L 306.60 230.50 L 311.00 231.40 L 315.10 232.80 L 318.90 234.80 L 322.50 237.20 L 325.70 240.00 L 328.50 243.20 L 330.90 246.70 L 332.80 250.60 L 334.30 254.70 L 335.20 259.00 L 335.50 263.60 L 335.50 425.20 L 335.20 429.80 L 334.30 434.20 L 332.80 438.20 L 330.90 442.10 L 328.50 445.70 L 325.70 448.90 L 322.50 451.70 L 318.90 454.10 L 315.10 456.00 L 311.00 457.50 L 306.60 458.30 L 302.10 458.70 Z" fill="#53c8ce" fill-rule="nonzero" group-id="2,3,4" node-id="101" stroke="none" target-height="228.50002" target-width="228.5" target-x="107" target-y="230.2"></path><g node-id="272"><path d="M 311.90 407.30 L 310.30 409.90 L 308.50 412.10 L 306.40 414.00 L 302.90 416.50 L 298.90 418.50 L 290.10 421.60 L 274.30 425.80 L 266.30 427.30 L 254.30 428.90 L 242.10 429.90 L 228.30 430.60 L 214.60 430.70 L 196.40 429.90 L 178.30 427.70 L 169.40 426.10 L 160.40 424.00 L 154.70 422.30 L 149.00 420.10 L 143.50 417.50 L 138.30 414.50 L 135.90 412.70 L 133.90 410.60 L 132.50 408.40 L 131.40 405.90 L 130.90 403.40 L 130.70 400.80 L 131.00 398.20 L 131.70 395.60 L 132.90 393.10 L 134.40 390.80 L 136.40 388.70 L 138.90 386.70 L 143.20 384.20 L 147.60 382.30 L 157.00 379.50 L 166.50 377.30 L 169.90 376.80 L 172.70 376.80 L 175.10 377.40 L 178.20 379.40 L 185.30 388.60 L 163.40 391.90 L 156.30 394.00 L 149.60 397.20 L 146.40 399.50 L 143.20 402.40 L 151.60 407.20 L 158.30 409.70 L 165.00 411.70 L 171.90 413.20 L 182.30 414.90 L 192.90 416.00 L 206.50 417.00 L 220.00 417.30 L 233.50 417.00 L 243.60 416.40 L 253.70 415.30 L 263.80 413.90 L 273.90 412.00 L 282.40 409.60 L 292.60 405.90 L 299.10 402.00 L 292.50 397.00 L 290.50 395.80 L 280.70 392.20 L 275.70 391.00 L 268.10 389.60 L 250.80 388.10 L 259.80 376.80 L 260.90 375.90 L 262.30 375.60 L 275.90 377.30 L 282.60 378.60 L 289.20 380.30 L 293.50 381.70 L 301.80 385.70 L 305.30 388.00 L 308.00 390.40 L 310.80 394.40 L 311.90 396.90 L 312.70 400.50 L 312.60 404.30 L 311.90 407.30 Z" fill="#ffffff" fill-rule="nonzero" group-id="2,3,4,12" node-id="105" stroke="none" target-height="55.100006" target-width="182.00002" target-x="130.7" target-y="375.6"></path><path d="M 240.40 262.60 L 234.50 260.40 L 230.60 259.40 L 221.50 258.20 L 216.50 258.20 L 207.60 259.30 L 199.70 261.80 L 192.30 264.90 L 187.70 267.60 L 183.60 270.60 L 180.00 273.90 L 176.70 277.40 L 173.90 281.20 L 171.40 285.20 L 169.30 289.40 L 167.60 293.90 L 166.40 298.50 L 165.50 303.50 L 165.10 308.40 L 165.10 313.40 L 165.50 318.60 L 166.30 324.00 L 167.70 329.70 L 170.10 337.20 L 172.90 344.40 L 176.00 351.20 L 179.60 357.80 L 184.90 366.20 L 190.70 374.30 L 197.10 382.00 L 203.80 389.40 L 218.20 403.70 L 222.70 399.80 L 233.40 389.00 L 244.20 376.20 L 253.70 363.10 L 257.30 357.20 L 261.60 349.20 L 265.30 341.00 L 269.30 329.60 L 270.70 323.60 L 271.60 318.30 L 272.00 313.10 L 272.00 308.20 L 271.50 303.50 L 270.60 298.80 L 269.40 294.30 L 267.80 290.10 L 265.80 286.10 L 261.00 278.60 L 255.00 272.10 L 250.50 268.40 L 245.60 265.20 L 240.40 262.60 Z M 218.20 340.60 L 214.20 340.20 L 210.40 339.40 L 206.80 338.10 L 203.40 336.30 L 200.30 334.20 L 197.60 331.60 L 195.10 328.80 L 193.00 325.70 L 191.40 322.30 L 190.20 318.80 L 189.50 315.00 L 189.30 311.10 L 189.60 307.10 L 190.40 303.30 L 191.80 299.80 L 193.60 296.40 L 195.70 293.30 L 198.20 290.50 L 201.10 288.10 L 204.20 286.00 L 207.60 284.40 L 211.20 283.10 L 214.90 282.40 L 218.90 282.20 L 222.80 282.60 L 226.60 283.40 L 230.20 284.70 L 233.50 286.50 L 236.60 288.60 L 239.40 291.20 L 241.80 294.00 L 243.90 297.20 L 245.60 300.60 L 246.80 304.10 L 247.50 307.90 L 247.70 311.90 L 247.40 315.90 L 246.60 319.60 L 245.30 323.20 L 243.50 326.60 L 241.40 329.60 L 238.90 332.40 L 236.00 334.80 L 232.90 336.90 L 229.50 338.50 L 225.90 339.70 L 222.20 340.40 L 218.20 340.60 Z" fill="#ffffff" fill-rule="nonzero" group-id="2,3,4,12" node-id="107" stroke="none" target-height="145.5" target-width="106.899994" target-x="165.1" target-y="258.2"></path></g></g><g node-id="265"><g node-id="273"><path d="M 627.90 203.30 L 478.40 203.30 L 475.60 203.60 L 473.10 204.30 L 470.80 205.40 L 468.60 207.00 L 466.80 208.90 L 465.30 211.10 L 464.20 213.50 L 463.50 216.10 L 463.30 219.00 L 463.30 313.70 L 463.50 316.60 L 464.20 319.20 L 465.30 321.70 L 466.80 323.90 L 468.60 325.70 L 470.80 327.30 L 473.10 328.50 L 475.60 329.20 L 478.40 329.40 L 576.20 329.40 L 608.30 360.50 L 609.70 361.60 L 611.10 362.10 L 612.60 362.20 L 615.50 361.40 L 617.70 359.20 L 618.30 357.70 L 618.50 355.90 L 618.50 329.40 L 627.90 329.40 L 630.70 329.20 L 633.20 328.50 L 635.60 327.30 L 637.70 325.70 L 639.50 323.90 L 641.00 321.70 L 642.10 319.20 L 642.80 316.60 L 643.00 313.70 L 643.00 219.00 L 642.80 216.10 L 642.10 213.50 L 641.00 211.10 L 639.50 208.90 L 637.70 207.00 L 635.60 205.40 L 633.20 204.30 L 630.70 203.60 L 627.90 203.30 Z" fill="#0b1066" fill-opacity="0.19" fill-rule="nonzero" group-id="2,3,5,13" node-id="115" stroke="none" target-height="158.90001" target-width="179.70001" target-x="463.3" target-y="203.3"></path></g><path d="M 617.10 203.30 L 477.40 203.30 L 474.80 203.50 L 472.40 204.20 L 470.30 205.20 L 468.30 206.60 L 466.60 208.30 L 465.20 210.30 L 464.20 212.50 L 463.50 214.80 L 463.30 217.40 L 463.30 302.40 L 463.50 304.90 L 464.20 307.30 L 465.20 309.50 L 466.60 311.40 L 468.30 313.10 L 470.30 314.50 L 472.40 315.60 L 474.80 316.20 L 477.40 316.50 L 568.80 316.50 L 598.70 344.30 L 601.40 345.80 L 602.80 345.90 L 605.50 345.10 L 607.50 343.10 L 608.00 341.80 L 608.30 340.20 L 608.30 316.50 L 619.60 316.20 L 622.00 315.60 L 624.20 314.50 L 626.20 313.10 L 627.80 311.40 L 629.20 309.50 L 630.30 307.30 L 630.90 304.90 L 631.20 302.40 L 631.20 217.40 L 630.90 214.80 L 630.30 212.50 L 629.30 210.30 L 627.90 208.30 L 626.20 206.60 L 624.20 205.20 L 622.00 204.20 L 619.70 203.50 L 617.10 203.30 Z" fill="#f5634a" fill-rule="nonzero" group-id="2,3,5" node-id="118" stroke="none" target-height="142.59999" target-width="167.90002" target-x="463.3" target-y="203.3"></path><path d="M 483.70 249.40 L 515.60 249.40 L 515.60 267.40 L 483.70 267.40 Z" fill="#ffffff" fill-rule="nonzero" group-id="2,3,5" node-id="120" stroke="none" target-height="18" target-width="31.899963" target-x="483.7" target-y="249.4"></path><path d="M 531.90 249.40 L 563.70 249.40 L 563.70 267.40 L 531.90 267.40 Z" fill="#ffffff" fill-rule="nonzero" group-id="2,3,5" node-id="122" stroke="none" target-height="18" target-width="31.799988" target-x="531.9" target-y="249.4"></path><path d="M 580.00 249.40 L 611.80 249.40 L 611.80 267.40 L 580.00 267.40 Z" fill="#ffffff" fill-rule="nonzero" group-id="2,3,5" node-id="124" stroke="none" target-height="18" target-width="31.799988" target-x="580" target-y="249.4"></path></g><g node-id="266"><path d="M 927.40 416.90 L 306.00 416.90 L 302.80 417.10 L 299.80 417.70 L 296.90 418.70 L 291.80 421.70 L 287.50 425.90 L 284.50 431.10 L 283.50 434.00 L 282.90 437.00 L 282.70 440.20 L 282.70 836.80 L 282.90 840.00 L 283.50 843.00 L 285.90 848.60 L 289.50 853.30 L 294.20 856.90 L 299.80 859.30 L 302.80 859.90 L 306.00 860.10 L 527.90 860.10 L 527.90 882.90 L 705.60 882.90 L 705.60 860.10 L 927.40 860.10 L 930.60 859.90 L 936.50 858.30 L 941.70 855.30 L 945.90 851.00 L 948.90 845.90 L 949.90 843.00 L 950.50 840.00 L 950.80 836.80 L 950.80 440.20 L 950.50 437.00 L 949.90 434.00 L 948.90 431.10 L 947.60 428.40 L 943.90 423.70 L 939.20 420.10 L 936.50 418.70 L 933.60 417.70 L 930.60 417.10 L 927.40 416.90 Z" fill="#6179ef" fill-rule="nonzero" group-id="2,3,6" node-id="129" stroke="none" target-height="466.00003" target-width="668.1" target-x="282.7" target-y="416.9"></path><path d="M 917.90 828.90 L 314.70 828.70 L 313.90 828.00 L 313.80 827.40 L 313.80 449.60 L 314.20 448.60 L 315.20 448.10 L 918.50 448.20 L 919.30 449.00 L 919.40 449.60 L 919.40 827.40 L 919.00 828.40 L 917.90 828.90 Z" fill="#f1f6ff" fill-rule="nonzero" group-id="2,3,6" node-id="131" stroke="none" target-height="380.80002" target-width="605.60004" target-x="313.8" target-y="448.1"></path><path d="M 1058.10 902.90 L 974.00 902.90 L 977.80 900.10 L 981.20 896.90 L 984.30 893.40 L 987.00 889.50 L 989.20 885.40 L 991.10 881.00 L 992.40 876.40 L 993.20 871.60 L 993.50 866.60 L 238.00 866.60 L 238.30 871.60 L 239.20 876.40 L 240.50 881.00 L 242.30 885.40 L 244.60 889.50 L 247.30 893.40 L 250.40 896.90 L 253.80 900.10 L 257.60 902.90 L 173.50 902.90 L 171.70 903.10 L 170.10 903.80 L 168.70 904.80 L 167.70 906.20 L 167.00 907.80 L 166.80 909.60 L 167.00 911.50 L 167.70 913.00 L 168.70 914.40 L 170.10 915.50 L 171.70 916.10 L 173.50 916.40 L 1058.10 916.40 L 1059.90 916.10 L 1061.50 915.50 L 1062.80 914.40 L 1063.90 913.00 L 1064.60 911.50 L 1064.80 909.60 L 1064.60 907.80 L 1063.90 906.20 L 1062.90 904.80 L 1061.50 903.80 L 1059.90 903.10 L 1058.10 902.90 Z" fill="url(#SVGID_1_)" fill-rule="nonzero" group-id="2,3,6" node-id="133" stroke="none" target-height="49.80005" target-width="898.00006" target-x="166.8" target-y="866.6"></path></g><path d="M 337.20 481.00 L 898.60 481.00 L 898.60 519.10 L 337.20 519.10 Z" fill="#856cf2" fill-rule="nonzero" group-id="2,3" node-id="136" stroke="none" target-height="38.099976" target-width="561.39996" target-x="337.2" target-y="481"></path><path d="M 525.30 542.70 L 898.60 542.70 L 898.60 807.10 L 525.30 807.10 Z" fill="#c1deff" fill-rule="nonzero" group-id="2,3" node-id="138" stroke="none" target-height="264.39996" target-width="373.3" target-x="525.3" target-y="542.7"></path><path d="M 337.20 542.70 L 496.20 542.70 L 496.20 807.10 L 337.20 807.10 Z" fill="#c1deff" fill-rule="nonzero" group-id="2,3" node-id="140" stroke="none" target-height="264.39996" target-width="159" target-x="337.2" target-y="542.7"></path><path d="M 354.50 560.00 L 478.00 560.00 L 478.00 622.00 L 354.50 622.00 Z" fill="#f5634a" fill-rule="nonzero" group-id="2,3" node-id="142" stroke="none" target-height="62" target-width="123.5" target-x="354.5" target-y="560"></path><path d="M 543.40 560.00 L 757.80 560.00 L 757.80 661.70 L 543.40 661.70 Z" fill="#f3be3e" fill-rule="nonzero" group-id="2,3" node-id="144" stroke="none" target-height="101.70001" target-width="214.39996" target-x="543.4" target-y="560"></path><path d="M 543.40 678.60 L 879.80 678.60 L 879.80 787.90 L 543.40 787.90 Z" fill="#f5634a" fill-rule="nonzero" group-id="2,3" node-id="146" stroke="none" target-height="109.30005" target-width="336.39996" target-x="543.4" target-y="678.6"></path><path d="M 774.60 560.00 L 879.80 560.00 L 879.80 661.70 L 774.60 661.70 Z" fill="#6179ef" fill-rule="nonzero" group-id="2,3" node-id="148" stroke="none" target-height="101.70001" target-width="105.20001" target-x="774.6" target-y="560"></path><path d="M 354.50 642.90 L 478.00 642.90 L 478.00 705.00 L 354.50 705.00 Z" fill="#f5634a" fill-rule="nonzero" group-id="2,3" node-id="150" stroke="none" target-height="62.099976" target-width="123.5" target-x="354.5" target-y="642.9"></path><path d="M 354.50 725.90 L 478.00 725.90 L 478.00 787.90 L 354.50 787.90 Z" fill="#f5634a" fill-rule="nonzero" group-id="2,3" node-id="152" stroke="none" target-height="62" target-width="123.5" target-x="354.5" target-y="725.9"></path><g node-id="267"><g node-id="274"><path d="M 1014.30 595.10 L 783.00 595.10 L 781.30 594.90 L 778.70 593.40 L 777.20 590.80 L 777.00 589.20 L 777.00 304.30 L 777.30 303.10 L 777.90 302.10 L 778.90 301.40 L 780.20 301.20 L 1017.10 301.20 L 1018.30 301.40 L 1019.30 302.10 L 1020.00 303.10 L 1020.30 304.30 L 1020.30 589.20 L 1020.00 590.80 L 1018.50 593.40 L 1015.90 594.90 L 1014.30 595.10 Z" fill="#0b1066" fill-opacity="0.19" fill-rule="nonzero" group-id="2,3,7,14" node-id="158" stroke="none" target-height="293.89996" target-width="243.29999" target-x="777" target-y="301.2"></path></g><path d="M 1003.60 577.40 L 780.10 577.40 L 778.90 577.20 L 777.90 576.50 L 777.30 575.50 L 777.00 574.30 L 777.00 304.30 L 777.30 303.10 L 777.90 302.10 L 778.90 301.40 L 780.20 301.20 L 1003.50 301.20 L 1004.70 301.40 L 1005.70 302.10 L 1006.40 303.10 L 1006.60 304.30 L 1006.60 574.30 L 1006.40 575.50 L 1005.70 576.50 L 1004.80 577.20 L 1003.60 577.40 Z" fill="#ffffff" fill-rule="nonzero" group-id="2,3,7" node-id="161" stroke="none" target-height="276.2" target-width="229.59998" target-x="777" target-y="301.2"></path><path d="M 1006.60 340.10 L 777.00 340.10 L 777.00 304.30 L 777.30 303.10 L 777.90 302.10 L 778.90 301.40 L 780.20 301.20 L 1003.50 301.20 L 1004.70 301.40 L 1005.70 302.10 L 1006.40 303.10 L 1006.60 304.30 L 1006.60 340.10 Z" fill="#6252db" fill-rule="nonzero" group-id="2,3,7" node-id="163" stroke="none" target-height="38.899994" target-width="229.59998" target-x="777" target-y="301.2"></path><path d="M 889.40 453.50 L 965.80 453.50 L 965.50 447.20 L 964.80 441.00 L 963.60 435.10 L 961.90 429.40 L 959.80 423.70 L 957.30 418.40 L 954.40 413.30 L 951.10 408.40 L 947.40 403.80 L 943.40 399.50 L 939.10 395.50 L 934.50 391.90 L 929.70 388.60 L 924.60 385.70 L 919.20 383.20 L 913.60 381.00 L 907.80 379.40 L 901.90 378.20 L 895.80 377.40 L 889.40 377.10 L 883.10 377.40 L 877.00 378.20 L 871.00 379.40 L 865.30 381.00 L 859.70 383.20 L 854.30 385.70 L 849.20 388.60 L 844.30 391.90 L 839.70 395.50 L 835.40 399.50 L 831.50 403.80 L 827.80 408.40 L 824.50 413.30 L 821.60 418.40 L 819.10 423.70 L 817.00 429.40 L 815.30 435.10 L 814.10 441.00 L 813.30 447.20 L 813.10 453.50 L 813.40 460.10 L 814.20 466.50 L 815.50 472.70 L 817.30 478.60 L 819.70 484.50 L 822.40 490.00 L 825.50 495.20 L 829.10 500.20 L 889.40 453.50 Z" fill="#856cf2" fill-rule="nonzero" group-id="2,3,7" node-id="165" stroke="none" target-height="123.100006" target-width="152.70001" target-x="813.1" target-y="377.1"></path><path d="M 965.80 453.50 L 889.40 453.50 L 942.40 508.40 L 947.00 503.60 L 951.10 498.40 L 954.90 492.80 L 958.10 486.90 L 960.80 480.80 L 962.90 474.30 L 964.20 469.30 L 965.60 458.90 L 965.80 453.50 Z" fill="#face46" fill-rule="nonzero" group-id="2,3,7" node-id="167" stroke="none" target-height="54.899994" target-width="76.39996" target-x="889.4" target-y="453.5"></path><path d="M 889.40 453.50 L 829.10 500.20 L 832.80 504.60 L 836.70 508.70 L 841.00 512.40 L 845.50 515.90 L 850.30 519.00 L 855.30 521.80 L 860.50 524.20 L 866.00 526.20 L 871.60 527.80 L 877.30 528.90 L 883.30 529.60 L 889.40 529.90 L 896.30 529.60 L 902.90 528.70 L 909.30 527.30 L 915.50 525.30 L 921.50 522.80 L 927.10 519.90 L 932.60 516.50 L 937.60 512.70 L 942.40 508.40 L 889.40 453.50 Z" fill="#53c8ce" fill-rule="nonzero" group-id="2,3,7" node-id="169" stroke="none" target-height="76.400024" target-width="113.30005" target-x="829.1" target-y="453.5"></path><path d="M 794.70 318.70 L 813.10 318.70 L 813.10 325.80 L 794.70 325.80 Z" fill="#ffffff" fill-rule="nonzero" group-id="2,3,7" node-id="171" stroke="none" target-height="7.0999756" target-width="18.399963" target-x="794.7" target-y="318.7"></path><path d="M 823.30 318.70 L 841.70 318.70 L 841.70 325.80 L 823.30 325.80 Z" fill="#ffffff" fill-rule="nonzero" group-id="2,3,7" node-id="173" stroke="none" target-height="7.0999756" target-width="18.400024" target-x="823.3" target-y="318.7"></path><path d="M 852.00 318.70 L 870.30 318.70 L 870.30 325.80 L 852.00 325.80 Z" fill="#ffffff" fill-rule="nonzero" group-id="2,3,7" node-id="175" stroke="none" target-height="7.0999756" target-width="18.299988" target-x="852" target-y="318.7"></path></g><g node-id="268"><g node-id="275"><path d="M 1112.30 807.10 L 1112.00 814.00 L 1111.20 820.60 L 1109.90 827.10 L 1108.00 833.40 L 1105.70 839.50 L 1103.00 845.30 L 1099.80 850.90 L 1096.20 856.20 L 1092.30 861.20 L 1087.90 865.90 L 1083.30 870.20 L 1078.20 874.20 L 1072.90 877.80 L 1067.40 880.90 L 1061.60 883.60 L 1055.40 886.00 L 1049.20 887.80 L 1042.70 889.10 L 1036.10 889.90 L 1029.20 890.20 L 1022.30 889.90 L 1015.60 889.10 L 1009.10 887.80 L 1002.90 886.00 L 996.80 883.60 L 990.90 880.90 L 985.40 877.80 L 980.10 874.20 L 975.00 870.20 L 970.40 865.90 L 966.10 861.20 L 962.10 856.20 L 958.50 850.90 L 955.30 845.30 L 952.60 839.50 L 950.30 833.40 L 948.50 827.10 L 947.10 820.60 L 946.30 814.00 L 946.00 807.10 L 946.30 800.20 L 947.10 793.50 L 948.50 787.10 L 950.30 780.80 L 952.60 774.70 L 955.30 768.90 L 958.50 763.30 L 962.10 758.00 L 966.10 753.00 L 970.40 748.30 L 975.00 744.00 L 980.10 740.00 L 985.40 736.40 L 990.90 733.30 L 996.80 730.50 L 1002.90 728.20 L 1009.10 726.40 L 1015.60 725.10 L 1022.30 724.30 L 1029.20 724.00 L 1036.10 724.30 L 1042.70 725.10 L 1049.20 726.40 L 1055.40 728.20 L 1061.60 730.50 L 1067.40 733.30 L 1072.90 736.40 L 1078.20 740.00 L 1083.30 744.00 L 1087.90 748.30 L 1092.30 753.00 L 1096.20 758.00 L 1099.80 763.30 L 1103.00 768.90 L 1105.70 774.70 L 1108.00 780.80 L 1109.90 787.10 L 1111.20 793.50 L 1112.00 800.20 L 1112.30 807.10 Z" fill="#53c8ce" fill-rule="nonzero" group-id="2,3,8,15" node-id="182" stroke="none" target-height="166.20001" target-width="166.30005" target-x="946" target-y="724"></path></g><path d="M 1064.80 796.40 L 1039.80 796.40 L 1039.80 771.50 L 1039.20 767.70 L 1037.30 764.60 L 1034.50 762.30 L 1031.10 761.00 L 1029.20 760.80 L 1027.20 761.00 L 1023.80 762.30 L 1021.00 764.60 L 1019.20 767.70 L 1018.50 771.50 L 1018.50 796.40 L 991.60 796.60 L 988.20 797.90 L 986.70 798.90 L 984.40 801.70 L 983.10 805.10 L 982.90 807.10 L 983.60 810.80 L 985.40 814.00 L 988.20 816.30 L 989.80 817.10 L 993.60 817.80 L 1018.50 817.80 L 1018.70 844.60 L 1019.20 846.40 L 1021.00 849.60 L 1023.80 851.90 L 1027.20 853.20 L 1031.10 853.20 L 1034.50 851.90 L 1037.30 849.60 L 1039.20 846.40 L 1039.80 842.70 L 1039.80 817.80 L 1066.70 817.60 L 1070.10 816.30 L 1071.60 815.20 L 1074.00 812.50 L 1075.20 809.00 L 1075.40 807.10 L 1075.20 805.10 L 1074.00 801.70 L 1072.90 800.20 L 1070.10 797.90 L 1066.70 796.60 L 1064.80 796.40 Z" fill="#f7f8f8" fill-rule="nonzero" group-id="2,3,8" node-id="185" stroke="none" target-height="92.400024" target-width="92.5" target-x="982.9" target-y="760.8"></path></g><g node-id="269"><g node-id="276"><path d="M 445.70 812.20 L 64.70 812.20 L 61.00 811.50 L 57.80 809.70 L 55.50 806.90 L 54.70 805.30 L 54.10 801.50 L 54.10 540.50 L 54.70 536.80 L 55.50 535.10 L 57.80 532.40 L 61.00 530.50 L 64.70 529.90 L 445.70 529.90 L 449.40 530.50 L 452.50 532.40 L 454.90 535.10 L 455.70 536.80 L 456.30 540.50 L 456.30 801.60 L 455.70 805.30 L 454.90 806.90 L 452.50 809.70 L 449.40 811.50 L 445.70 812.20 Z" fill="#0b1066" fill-opacity="0.19" fill-rule="nonzero" group-id="2,3,9,16" node-id="192" stroke="none" target-height="282.3" target-width="402.19998" target-x="54.1" target-y="529.9"></path></g><path d="M 427.70 789.70 L 64.70 789.70 L 61.00 789.00 L 57.80 787.20 L 55.50 784.40 L 54.70 782.80 L 54.10 779.10 L 54.10 540.50 L 54.70 536.80 L 55.50 535.10 L 57.80 532.40 L 61.00 530.50 L 64.70 529.90 L 427.70 529.90 L 431.40 530.50 L 434.60 532.40 L 436.90 535.10 L 437.70 536.80 L 438.30 540.50 L 438.30 779.10 L 437.70 782.80 L 435.80 785.90 L 433.10 788.20 L 431.40 789.00 L 427.70 789.70 Z" fill="#856cf2" fill-rule="nonzero" group-id="2,3,9" node-id="195" stroke="none" target-height="259.8" target-width="384.19998" target-x="54.1" target-y="529.9"></path><path d="M 174.10 654.10 L 96.30 654.10 L 95.30 653.60 L 94.90 652.70 L 94.90 574.90 L 95.10 574.30 L 95.80 573.60 L 174.10 573.50 L 175.10 573.90 L 175.50 574.90 L 175.50 652.70 L 175.10 653.60 L 174.10 654.10 Z" fill="#f5634a" fill-rule="nonzero" group-id="2,3,9" node-id="197" stroke="none" target-height="80.599976" target-width="80.6" target-x="94.9" target-y="573.5"></path><path d="M 285.10 654.10 L 207.30 654.10 L 206.30 653.60 L 205.90 652.70 L 205.90 574.90 L 206.00 574.30 L 206.80 573.60 L 285.10 573.50 L 286.10 573.90 L 286.50 574.90 L 286.50 652.70 L 286.10 653.60 L 285.10 654.10 Z" fill="#53c8ce" fill-rule="nonzero" group-id="2,3,9" node-id="199" stroke="none" target-height="80.599976" target-width="80.600006" target-x="205.9" target-y="573.5"></path><path d="M 397.90 654.10 L 320.10 654.10 L 319.10 653.60 L 318.70 652.70 L 318.70 574.90 L 318.80 574.30 L 319.50 573.60 L 397.90 573.50 L 398.80 573.90 L 399.20 574.90 L 399.20 652.70 L 398.80 653.60 L 397.90 654.10 Z" fill="#face46" fill-rule="nonzero" group-id="2,3,9" node-id="201" stroke="none" target-height="80.599976" target-width="80.5" target-x="318.7" target-y="573.5"></path><path d="M 97.00 670.20 L 139.20 670.20 L 139.20 679.40 L 97.00 679.40 Z" fill="#ffffff" fill-rule="nonzero" group-id="2,3,9" node-id="203" stroke="none" target-height="9.200012" target-width="42.199997" target-x="97" target-y="670.2"></path><path d="M 97.00 694.20 L 176.70 694.20 L 176.70 703.50 L 97.00 703.50 Z" fill="#ffffff" fill-rule="nonzero" group-id="2,3,9" node-id="205" stroke="none" target-height="9.299988" target-width="79.7" target-x="97" target-y="694.2"></path><path d="M 97.00 717.20 L 176.70 717.20 L 176.70 726.40 L 97.00 726.40 Z" fill="#ffffff" fill-rule="nonzero" group-id="2,3,9" node-id="207" stroke="none" target-height="9.200012" target-width="79.7" target-x="97" target-y="717.2"></path><path d="M 97.00 741.60 L 176.70 741.60 L 176.70 750.80 L 97.00 750.80 Z" fill="#ffffff" fill-rule="nonzero" group-id="2,3,9" node-id="209" stroke="none" target-height="9.200012" target-width="79.7" target-x="97" target-y="741.6"></path><path d="M 204.30 671.40 L 246.50 671.40 L 246.50 680.60 L 204.30 680.60 Z" fill="#ffffff" fill-rule="nonzero" group-id="2,3,9" node-id="211" stroke="none" target-height="9.199951" target-width="42.199997" target-x="204.3" target-y="671.4"></path><path d="M 204.30 695.40 L 284.00 695.40 L 284.00 704.60 L 204.30 704.60 Z" fill="#ffffff" fill-rule="nonzero" group-id="2,3,9" node-id="213" stroke="none" target-height="9.199951" target-width="79.7" target-x="204.3" target-y="695.4"></path><path d="M 204.30 718.40 L 284.00 718.40 L 284.00 727.60 L 204.30 727.60 Z" fill="#ffffff" fill-rule="nonzero" group-id="2,3,9" node-id="215" stroke="none" target-height="9.199951" target-width="79.7" target-x="204.3" target-y="718.4"></path><path d="M 204.30 742.80 L 284.00 742.80 L 284.00 752.00 L 204.30 752.00 Z" fill="#ffffff" fill-rule="nonzero" group-id="2,3,9" node-id="217" stroke="none" target-height="9.200012" target-width="79.7" target-x="204.3" target-y="742.8"></path><path d="M 318.70 671.40 L 360.90 671.40 L 360.90 680.60 L 318.70 680.60 Z" fill="#ffffff" fill-rule="nonzero" group-id="2,3,9" node-id="219" stroke="none" target-height="9.199951" target-width="42.19998" target-x="318.7" target-y="671.4"></path><path d="M 318.70 695.40 L 398.40 695.40 L 398.40 704.60 L 318.70 704.60 Z" fill="#ffffff" fill-rule="nonzero" group-id="2,3,9" node-id="221" stroke="none" target-height="9.199951" target-width="79.69998" target-x="318.7" target-y="695.4"></path><path d="M 318.70 718.40 L 398.40 718.40 L 398.40 727.60 L 318.70 727.60 Z" fill="#ffffff" fill-rule="nonzero" group-id="2,3,9" node-id="223" stroke="none" target-height="9.199951" target-width="79.69998" target-x="318.7" target-y="718.4"></path><path d="M 318.70 742.80 L 398.40 742.80 L 398.40 752.00 L 318.70 752.00 Z" fill="#ffffff" fill-rule="nonzero" group-id="2,3,9" node-id="225" stroke="none" target-height="9.200012" target-width="79.69998" target-x="318.7" target-y="742.8"></path></g><g node-id="270"><path d="M 943.60 854.00 L 949.30 887.80 L 965.70 879.80 L 961.40 847.10 Z" fill="#fbcfbc" fill-rule="nonzero" group-id="2,3,10" node-id="230" stroke="none" target-height="40.700012" target-width="22.100037" target-x="943.6" target-y="847.1"></path><path d="M 828.60 833.70 L 812.90 851.90 L 823.40 867.50 L 848.90 840.00 Z" fill="#fbcfbc" fill-rule="nonzero" group-id="2,3,10" node-id="232" stroke="none" target-height="33.799988" target-width="36" target-x="812.9" target-y="833.7"></path><path d="M 965.70 867.50 L 964.60 869.60 L 962.20 872.30 L 960.30 873.60 L 957.90 874.50 L 952.50 875.10 L 946.40 874.10 L 944.70 882.50 L 943.10 889.00 L 941.10 894.80 L 939.20 899.20 L 933.60 908.90 L 933.10 910.70 L 933.20 912.40 L 933.60 913.80 L 934.90 915.60 L 935.70 916.20 L 979.10 881.00 L 965.70 867.50 Z" fill="#211d42" fill-rule="nonzero" group-id="2,3,10" node-id="234" stroke="none" target-height="48.700012" target-width="46" target-x="933.1" target-y="867.5"></path><path d="M 833.30 856.80 L 830.00 857.20 L 827.50 856.70 L 824.00 855.00 L 820.10 851.30 L 818.00 848.50 L 815.90 844.60 L 806.70 848.80 L 801.80 850.50 L 796.30 851.90 L 792.50 852.40 L 788.30 852.50 L 781.10 852.10 L 779.00 852.50 L 777.20 853.40 L 775.70 854.70 L 774.40 856.50 L 773.40 858.80 L 796.00 866.30 L 830.90 877.10 L 833.30 856.80 Z" fill="#211d42" fill-rule="nonzero" group-id="2,3,10" node-id="236" stroke="none" target-height="32.5" target-width="59.899963" target-x="773.4" target-y="844.6"></path><path d="M 922.40 675.90 L 990.70 675.90 L 990.70 686.70 L 922.40 686.70 Z" fill="#3970ff" fill-rule="nonzero" group-id="2,3,10" node-id="238" stroke="none" target-height="10.799988" target-width="68.29999" target-x="922.4" target-y="675.9"></path><path d="M 935.00 697.00 L 821.70 835.50 L 845.80 850.30 L 944.80 755.00 Z" fill="#211d42" fill-rule="nonzero" group-id="2,3,10" node-id="240" stroke="none" target-height="153.29999" target-width="123.099976" target-x="821.7" target-y="697"></path><path d="M 1024.80 659.10 L 1009.20 662.20 L 992.90 666.00 L 973.90 670.90 L 954.30 677.00 L 944.80 680.40 L 930.80 686.60 L 921.90 691.70 L 918.10 694.60 L 915.40 697.40 L 913.50 700.10 L 911.00 704.90 L 909.20 709.40 L 907.90 715.60 L 907.60 719.20 L 907.90 726.90 L 908.50 731.90 L 912.10 750.00 L 939.50 861.60 L 965.60 857.00 L 948.90 731.40 L 977.20 732.60 L 994.60 732.60 L 1013.20 731.60 L 1031.10 729.50 L 1036.90 728.40 L 1046.80 725.70 L 1051.40 724.00 L 1055.20 722.10 L 1058.40 720.00 L 1060.50 718.10 L 1062.20 716.20 L 1063.40 714.10 L 1064.20 711.90 L 1066.30 700.80 L 1066.80 695.60 L 1067.00 687.90 L 1066.60 681.10 L 1065.90 674.70 L 1063.90 664.90 L 1062.20 659.10 L 1024.80 659.10 Z" fill="#322d76" fill-rule="nonzero" group-id="2,3,10" node-id="242" stroke="none" target-height="202.5" target-width="159.40002" target-x="907.6" target-y="659.1"></path><path d="M 1006.60 514.00 L 1008.70 523.50 L 1011.40 532.60 L 1015.40 542.20 L 1017.90 546.70 L 1020.70 550.50 L 1022.80 552.70 L 1025.00 554.40 L 1027.30 555.70 L 1031.10 556.50 L 1035.50 556.00 L 1035.70 569.80 L 1035.50 585.00 L 1063.30 561.30 L 1060.60 556.90 L 1059.00 553.50 L 1057.60 549.70 L 1056.40 545.30 L 1055.70 538.90 L 1056.40 529.00 L 1056.50 523.50 L 1056.10 520.00 L 1055.30 517.10 L 1053.90 514.50 L 1052.60 512.90 L 1050.80 511.50 L 1048.50 510.10 L 1045.60 509.00 L 1040.30 508.20 L 1032.00 508.50 L 1026.80 509.20 L 1016.90 511.20 L 1006.60 514.00 Z" fill="#fbcfbc" fill-rule="nonzero" group-id="2,3,10" node-id="244" stroke="none" target-height="76.79999" target-width="56.700073" target-x="1006.6" target-y="508.2"></path><path d="M 1033.40 524.60 L 1032.20 523.40 L 1029.10 521.90 L 1026.60 521.40 L 1023.80 521.50 L 1018.30 522.70 L 1011.80 525.90 L 1006.50 527.30 L 1003.40 527.60 L 1000.20 527.30 L 997.10 526.50 L 995.20 525.70 L 991.60 523.00 L 990.20 521.20 L 989.00 519.00 L 988.00 516.20 L 987.40 512.60 L 987.40 509.50 L 988.00 506.90 L 989.10 504.40 L 990.60 502.30 L 992.50 500.60 L 996.90 498.10 L 1001.90 497.10 L 1004.30 497.10 L 1011.20 498.40 L 1015.30 498.80 L 1019.00 498.80 L 1022.60 498.20 L 1025.50 497.30 L 1029.90 495.10 L 1032.40 494.30 L 1037.90 493.70 L 1043.30 494.30 L 1045.60 495.10 L 1048.50 496.80 L 1056.70 499.70 L 1058.80 500.90 L 1061.20 503.30 L 1062.80 506.70 L 1063.20 509.00 L 1063.00 520.60 L 1062.50 525.70 L 1061.70 528.60 L 1059.00 534.20 L 1057.50 538.70 L 1056.70 543.10 L 1056.20 543.20 L 1055.60 542.80 L 1054.80 541.50 L 1054.30 539.80 L 1054.00 537.00 L 1054.70 528.60 L 1054.70 523.60 L 1053.80 520.60 L 1052.90 519.50 L 1051.60 518.80 L 1049.80 518.50 L 1047.90 518.80 L 1046.40 519.40 L 1045.30 520.50 L 1044.00 522.60 L 1043.20 525.10 L 1042.80 527.70 L 1042.60 534.40 L 1041.90 536.10 L 1041.30 536.20 L 1040.50 535.70 L 1035.40 527.10 L 1033.40 524.60 Z" fill="#10224f" fill-rule="nonzero" group-id="2,3,10" node-id="246" stroke="none" target-height="49.5" target-width="75.79993" target-x="987.4" target-y="493.7"></path><path d="M 1081.80 605.00 L 1081.30 614.00 L 1079.60 632.10 L 1076.10 656.60 L 1072.80 676.50 L 1072.20 678.90 L 1071.00 681.70 L 1069.40 684.30 L 1065.50 688.40 L 1061.60 690.70 L 1059.40 691.40 L 1057.10 691.70 L 1054.50 691.60 L 1052.00 691.00 L 1049.30 689.90 L 1046.20 688.10 L 1036.80 681.50 L 1028.90 676.90 L 1020.50 673.80 L 1004.40 670.20 L 1001.40 669.10 L 998.70 667.10 L 998.10 666.00 L 997.70 663.40 L 998.60 659.30 L 1002.80 645.80 L 1009.40 628.10 L 1021.60 599.40 L 1027.60 586.70 L 1032.50 577.60 L 1039.00 567.40 L 1045.90 558.50 L 1049.50 554.90 L 1052.50 552.40 L 1054.60 551.30 L 1056.40 550.80 L 1058.00 550.90 L 1060.80 552.20 L 1065.90 556.60 L 1069.40 560.80 L 1073.60 567.40 L 1077.50 576.00 L 1080.40 586.40 L 1081.30 592.00 L 1081.80 598.20 L 1081.80 605.00 Z" fill="#f9bc00" fill-rule="nonzero" group-id="2,3,10" node-id="248" stroke="none" target-height="140.90002" target-width="84.10004" target-x="997.7" target-y="550.8"></path><path d="M 1044.50 587.30 L 1069.10 599.20 L 1059.10 621.80 L 1049.80 640.70 L 1043.30 651.90 L 1040.30 656.10 L 1036.50 660.40 L 1035.00 661.50 L 1031.80 663.00 L 1015.10 668.90 L 988.50 676.50 L 969.40 681.40 L 965.10 684.10 L 960.80 685.10 L 956.60 685.40 L 944.10 684.80 L 935.50 683.40 L 931.80 682.20 L 929.50 681.20 L 926.40 678.90 L 925.30 677.40 L 924.80 675.70 L 924.90 673.80 L 926.30 671.90 L 928.10 670.70 L 931.10 669.20 L 935.20 667.90 L 939.70 666.90 L 944.70 666.50 L 943.50 665.30 L 942.30 662.70 L 942.40 660.30 L 942.90 659.40 L 943.80 658.90 L 945.00 658.70 L 947.00 659.10 L 954.00 661.00 L 962.10 662.50 L 969.60 662.80 L 975.30 661.70 L 984.70 659.30 L 995.80 656.10 L 1006.60 652.20 L 1011.60 650.20 L 1017.80 646.80 L 1020.10 644.50 L 1022.80 639.00 L 1031.40 618.90 L 1044.50 587.30 Z" fill="#fbcfbc" fill-rule="nonzero" group-id="2,3,10" node-id="250" stroke="none" target-height="98.10004" target-width="144.29999" target-x="924.8" target-y="587.3"></path><path d="M 921.20 685.40 L 899.90 600.20 L 907.60 598.30 L 929.10 682.30 Z" fill="#3970ff" fill-rule="nonzero" group-id="2,3,10" node-id="252" stroke="none" target-height="87.10004" target-width="29.199951" target-x="899.9" target-y="598.3"></path></g><path d="M 860.20 247.90 L 857.20 247.90 L 857.10 244.00 L 856.50 241.10 L 855.50 238.30 L 852.50 233.20 L 848.50 229.10 L 843.40 226.20 L 837.70 224.60 L 834.50 224.40 L 830.70 224.70 L 827.20 225.60 L 824.00 227.00 L 821.00 228.90 L 821.20 226.30 L 821.00 222.70 L 820.30 219.30 L 819.10 216.00 L 817.60 212.90 L 815.70 210.10 L 813.50 207.60 L 810.90 205.30 L 808.10 203.40 L 805.00 201.90 L 801.80 200.80 L 798.40 200.10 L 794.70 199.80 L 791.10 200.10 L 787.70 200.80 L 784.40 201.90 L 781.30 203.40 L 778.50 205.30 L 776.00 207.60 L 773.70 210.10 L 771.80 212.90 L 770.30 216.00 L 769.20 219.30 L 768.50 222.70 L 768.20 226.30 L 768.60 230.00 L 764.20 227.00 L 761.80 225.90 L 756.60 224.50 L 753.80 224.40 L 750.60 224.60 L 744.90 226.10 L 742.30 227.50 L 737.60 231.00 L 734.10 235.70 L 732.70 238.30 L 731.20 244.00 L 731.00 247.90 L 726.90 248.10 L 722.70 249.60 L 719.30 252.50 L 717.10 256.30 L 716.50 258.50 L 716.30 260.90 L 716.50 263.30 L 717.10 265.50 L 718.00 267.50 L 720.90 270.90 L 724.70 273.10 L 726.90 273.70 L 729.30 273.90 L 860.10 273.90 L 862.50 273.70 L 864.70 273.10 L 866.70 272.10 L 870.10 269.30 L 872.40 265.50 L 873.00 263.30 L 873.20 260.90 L 873.00 258.50 L 872.40 256.30 L 871.40 254.30 L 868.60 250.90 L 864.70 248.70 L 860.20 247.90 Z M 811.80 247.90 L 810.10 247.90 L 811.80 246.50 L 811.80 247.90 Z M 776.40 245.40 L 779.40 247.90 L 776.50 247.90 L 776.40 245.40 Z" fill="#d0e2ff" fill-rule="nonzero" group-id="2,3" node-id="255" stroke="none" target-height="74.09999" target-width="156.90002" target-x="716.3" target-y="199.8"></path><g node-id="271"><path d="M 107.00 920.40 L 103.10 920.10 L 99.40 919.40 L 95.90 918.20 L 92.60 916.50 L 89.50 914.50 L 86.80 912.00 L 84.40 909.30 L 82.30 906.30 L 80.70 902.90 L 79.40 899.40 L 78.70 895.70 L 78.40 891.80 L 78.70 887.90 L 79.40 884.20 L 80.70 880.70 L 82.30 877.40 L 84.40 874.40 L 86.80 871.60 L 89.50 869.20 L 92.60 867.20 L 95.90 865.50 L 99.40 864.30 L 103.10 863.50 L 107.00 863.30 L 110.90 863.50 L 114.60 864.30 L 118.10 865.50 L 121.40 867.20 L 124.50 869.20 L 127.20 871.60 L 129.60 874.40 L 131.70 877.40 L 133.30 880.70 L 134.60 884.20 L 135.30 887.90 L 135.60 891.80 L 135.30 895.70 L 134.60 899.40 L 133.30 902.90 L 131.70 906.30 L 129.60 909.30 L 127.20 912.00 L 124.50 914.50 L 121.40 916.50 L 118.10 918.20 L 114.60 919.40 L 110.90 920.10 L 107.00 920.40 Z M 107.00 870.40 L 104.00 870.60 L 98.70 872.10 L 96.20 873.30 L 93.20 875.40 L 90.60 878.00 L 88.50 881.00 L 87.20 883.50 L 85.80 888.90 L 85.50 891.80 L 85.80 894.80 L 87.20 900.20 L 88.50 902.70 L 90.60 905.70 L 93.20 908.20 L 96.20 910.40 L 98.70 911.60 L 104.00 913.10 L 107.00 913.30 L 110.00 913.10 L 115.30 911.60 L 117.80 910.40 L 120.80 908.20 L 123.40 905.70 L 125.50 902.70 L 126.80 900.20 L 128.20 894.80 L 128.50 891.80 L 128.20 888.90 L 126.80 883.50 L 125.50 881.00 L 123.40 878.00 L 120.80 875.40 L 117.80 873.30 L 115.40 872.10 L 110.00 870.60 L 107.00 870.40 Z" fill="#6179ef" fill-rule="nonzero" group-id="2,3,11" node-id="259" stroke="none" target-height="57.100037" target-width="57.200005" target-x="78.4" target-y="863.3"></path></g></g></g></svg>